<mxfile host="app.diagrams.net" modified="2021-04-11T11:35:21.317Z" agent="5.0 (Macintosh; Intel Mac OS X 10_15_7) AppleWebKit/605.1.15 (KHTML, like Gecko) Version/14.1 Safari/605.1.15" etag="F0jSyMs1Va75Xy993Y4Y" version="14.5.10" type="github">
  <diagram id="xbOir8xVy0ScPJbItb_Z" name="페이지-1">
    <mxGraphModel dx="1177" dy="676" grid="1" gridSize="10" guides="1" tooltips="1" connect="1" arrows="1" fold="1" page="1" pageScale="1" pageWidth="827" pageHeight="1169" math="0" shadow="0">
      <root>
        <mxCell id="0" />
        <mxCell id="1" parent="0" />
        <mxCell id="J8dEjbeaUniouszwW0W3-4" value="" style="group;" vertex="1" connectable="0" parent="1">
          <mxGeometry x="80" y="280" width="80" height="160" as="geometry" />
        </mxCell>
        <mxCell id="J8dEjbeaUniouszwW0W3-1" value="" style="endArrow=none;html=1;strokeWidth=3;" edge="1" parent="J8dEjbeaUniouszwW0W3-4">
          <mxGeometry width="50" height="50" relative="1" as="geometry">
            <mxPoint y="160" as="sourcePoint" />
            <mxPoint as="targetPoint" />
          </mxGeometry>
        </mxCell>
        <mxCell id="J8dEjbeaUniouszwW0W3-2" value="" style="endArrow=none;html=1;strokeWidth=3;" edge="1" parent="J8dEjbeaUniouszwW0W3-4">
          <mxGeometry width="50" height="50" relative="1" as="geometry">
            <mxPoint y="160" as="sourcePoint" />
            <mxPoint x="80" y="160" as="targetPoint" />
          </mxGeometry>
        </mxCell>
        <mxCell id="J8dEjbeaUniouszwW0W3-3" value="" style="endArrow=none;html=1;strokeWidth=3;" edge="1" parent="J8dEjbeaUniouszwW0W3-4">
          <mxGeometry width="50" height="50" relative="1" as="geometry">
            <mxPoint x="80" y="160" as="sourcePoint" />
            <mxPoint x="80" as="targetPoint" />
          </mxGeometry>
        </mxCell>
        <mxCell id="J8dEjbeaUniouszwW0W3-24" value="&lt;font style=&quot;font-size: 15px&quot;&gt;empty &lt;br&gt;stack&lt;/font&gt;" style="text;html=1;resizable=0;autosize=1;align=center;verticalAlign=middle;points=[];fillColor=none;strokeColor=none;rounded=0;" vertex="1" parent="1">
          <mxGeometry x="90" y="439" width="60" height="40" as="geometry" />
        </mxCell>
        <mxCell id="J8dEjbeaUniouszwW0W3-27" value="" style="group;" vertex="1" connectable="0" parent="1">
          <mxGeometry x="200" y="280" width="80" height="160" as="geometry" />
        </mxCell>
        <mxCell id="J8dEjbeaUniouszwW0W3-28" value="" style="endArrow=none;html=1;strokeWidth=3;" edge="1" parent="J8dEjbeaUniouszwW0W3-27">
          <mxGeometry width="50" height="50" relative="1" as="geometry">
            <mxPoint y="160" as="sourcePoint" />
            <mxPoint as="targetPoint" />
          </mxGeometry>
        </mxCell>
        <mxCell id="J8dEjbeaUniouszwW0W3-29" value="" style="endArrow=none;html=1;strokeWidth=3;" edge="1" parent="J8dEjbeaUniouszwW0W3-27">
          <mxGeometry width="50" height="50" relative="1" as="geometry">
            <mxPoint y="160" as="sourcePoint" />
            <mxPoint x="80" y="160" as="targetPoint" />
          </mxGeometry>
        </mxCell>
        <mxCell id="J8dEjbeaUniouszwW0W3-30" value="" style="endArrow=none;html=1;strokeWidth=3;" edge="1" parent="J8dEjbeaUniouszwW0W3-27">
          <mxGeometry width="50" height="50" relative="1" as="geometry">
            <mxPoint x="80" y="160" as="sourcePoint" />
            <mxPoint x="80" as="targetPoint" />
          </mxGeometry>
        </mxCell>
        <mxCell id="J8dEjbeaUniouszwW0W3-47" value="1" style="rounded=1;whiteSpace=wrap;html=1;strokeColor=#000000;strokeWidth=3;fillColor=#D4E1F5;fontSize=20;" vertex="1" parent="J8dEjbeaUniouszwW0W3-27">
          <mxGeometry y="120" width="80" height="40" as="geometry" />
        </mxCell>
        <mxCell id="J8dEjbeaUniouszwW0W3-31" value="&lt;span style=&quot;font-size: 15px&quot;&gt;push&lt;/span&gt;" style="text;html=1;resizable=0;autosize=1;align=center;verticalAlign=middle;points=[];fillColor=none;strokeColor=none;rounded=0;" vertex="1" parent="1">
          <mxGeometry x="215" y="449" width="50" height="20" as="geometry" />
        </mxCell>
        <mxCell id="J8dEjbeaUniouszwW0W3-32" value="" style="group;" vertex="1" connectable="0" parent="1">
          <mxGeometry x="320" y="280" width="80" height="160" as="geometry" />
        </mxCell>
        <mxCell id="J8dEjbeaUniouszwW0W3-33" value="" style="endArrow=none;html=1;strokeWidth=3;" edge="1" parent="J8dEjbeaUniouszwW0W3-32">
          <mxGeometry width="50" height="50" relative="1" as="geometry">
            <mxPoint y="160" as="sourcePoint" />
            <mxPoint as="targetPoint" />
          </mxGeometry>
        </mxCell>
        <mxCell id="J8dEjbeaUniouszwW0W3-34" value="" style="endArrow=none;html=1;strokeWidth=3;" edge="1" parent="J8dEjbeaUniouszwW0W3-32">
          <mxGeometry width="50" height="50" relative="1" as="geometry">
            <mxPoint y="160" as="sourcePoint" />
            <mxPoint x="80" y="160" as="targetPoint" />
          </mxGeometry>
        </mxCell>
        <mxCell id="J8dEjbeaUniouszwW0W3-35" value="" style="endArrow=none;html=1;strokeWidth=3;" edge="1" parent="J8dEjbeaUniouszwW0W3-32">
          <mxGeometry width="50" height="50" relative="1" as="geometry">
            <mxPoint x="80" y="160" as="sourcePoint" />
            <mxPoint x="80" as="targetPoint" />
          </mxGeometry>
        </mxCell>
        <mxCell id="J8dEjbeaUniouszwW0W3-50" value="1" style="rounded=1;whiteSpace=wrap;html=1;strokeColor=#000000;strokeWidth=3;fillColor=#D4E1F5;fontSize=20;" vertex="1" parent="J8dEjbeaUniouszwW0W3-32">
          <mxGeometry y="120" width="80" height="40" as="geometry" />
        </mxCell>
        <mxCell id="J8dEjbeaUniouszwW0W3-52" value="" style="endArrow=none;html=1;strokeWidth=3;" edge="1" parent="J8dEjbeaUniouszwW0W3-32">
          <mxGeometry width="50" height="50" relative="1" as="geometry">
            <mxPoint y="119.17000000000002" as="sourcePoint" />
            <mxPoint x="80" y="119.17000000000002" as="targetPoint" />
          </mxGeometry>
        </mxCell>
        <mxCell id="J8dEjbeaUniouszwW0W3-53" value="2" style="rounded=1;whiteSpace=wrap;html=1;strokeColor=#000000;strokeWidth=3;fillColor=#D4E1F5;fontSize=20;" vertex="1" parent="J8dEjbeaUniouszwW0W3-32">
          <mxGeometry y="79.17000000000002" width="80" height="40" as="geometry" />
        </mxCell>
        <mxCell id="J8dEjbeaUniouszwW0W3-36" value="&lt;span style=&quot;font-size: 15px&quot;&gt;push&lt;/span&gt;" style="text;html=1;resizable=0;autosize=1;align=center;verticalAlign=middle;points=[];fillColor=none;strokeColor=none;rounded=0;" vertex="1" parent="1">
          <mxGeometry x="335" y="449" width="50" height="20" as="geometry" />
        </mxCell>
        <mxCell id="J8dEjbeaUniouszwW0W3-37" value="" style="group;" vertex="1" connectable="0" parent="1">
          <mxGeometry x="440" y="280" width="80" height="160" as="geometry" />
        </mxCell>
        <mxCell id="J8dEjbeaUniouszwW0W3-38" value="" style="endArrow=none;html=1;strokeWidth=3;" edge="1" parent="J8dEjbeaUniouszwW0W3-37">
          <mxGeometry width="50" height="50" relative="1" as="geometry">
            <mxPoint y="160" as="sourcePoint" />
            <mxPoint as="targetPoint" />
          </mxGeometry>
        </mxCell>
        <mxCell id="J8dEjbeaUniouszwW0W3-39" value="" style="endArrow=none;html=1;strokeWidth=3;" edge="1" parent="J8dEjbeaUniouszwW0W3-37">
          <mxGeometry width="50" height="50" relative="1" as="geometry">
            <mxPoint y="160" as="sourcePoint" />
            <mxPoint x="80" y="160" as="targetPoint" />
          </mxGeometry>
        </mxCell>
        <mxCell id="J8dEjbeaUniouszwW0W3-40" value="" style="endArrow=none;html=1;strokeWidth=3;" edge="1" parent="J8dEjbeaUniouszwW0W3-37">
          <mxGeometry width="50" height="50" relative="1" as="geometry">
            <mxPoint x="80" y="160" as="sourcePoint" />
            <mxPoint x="80" as="targetPoint" />
          </mxGeometry>
        </mxCell>
        <mxCell id="J8dEjbeaUniouszwW0W3-54" value="" style="endArrow=none;html=1;strokeWidth=3;" edge="1" parent="J8dEjbeaUniouszwW0W3-37">
          <mxGeometry width="50" height="50" relative="1" as="geometry">
            <mxPoint y="159.17000000000002" as="sourcePoint" />
            <mxPoint x="80" y="159.17000000000002" as="targetPoint" />
          </mxGeometry>
        </mxCell>
        <mxCell id="J8dEjbeaUniouszwW0W3-55" value="1" style="rounded=1;whiteSpace=wrap;html=1;strokeColor=#000000;strokeWidth=3;fillColor=#D4E1F5;fontSize=20;" vertex="1" parent="J8dEjbeaUniouszwW0W3-37">
          <mxGeometry y="119.17000000000002" width="80" height="40" as="geometry" />
        </mxCell>
        <mxCell id="J8dEjbeaUniouszwW0W3-56" value="" style="endArrow=none;html=1;strokeWidth=3;" edge="1" parent="J8dEjbeaUniouszwW0W3-37">
          <mxGeometry width="50" height="50" relative="1" as="geometry">
            <mxPoint y="118.34000000000009" as="sourcePoint" />
            <mxPoint x="80" y="118.34000000000009" as="targetPoint" />
          </mxGeometry>
        </mxCell>
        <mxCell id="J8dEjbeaUniouszwW0W3-57" value="2" style="rounded=1;whiteSpace=wrap;html=1;strokeColor=#000000;strokeWidth=3;fillColor=#D4E1F5;fontSize=20;" vertex="1" parent="J8dEjbeaUniouszwW0W3-37">
          <mxGeometry y="78.34000000000003" width="80" height="40" as="geometry" />
        </mxCell>
        <mxCell id="J8dEjbeaUniouszwW0W3-58" value="" style="endArrow=none;html=1;strokeWidth=3;" edge="1" parent="J8dEjbeaUniouszwW0W3-37">
          <mxGeometry width="50" height="50" relative="1" as="geometry">
            <mxPoint y="77.51000000000016" as="sourcePoint" />
            <mxPoint x="80" y="77.51000000000016" as="targetPoint" />
          </mxGeometry>
        </mxCell>
        <mxCell id="J8dEjbeaUniouszwW0W3-59" value="3" style="rounded=1;whiteSpace=wrap;html=1;strokeColor=#000000;strokeWidth=3;fillColor=#D4E1F5;fontSize=20;" vertex="1" parent="J8dEjbeaUniouszwW0W3-37">
          <mxGeometry y="37.51000000000005" width="80" height="40" as="geometry" />
        </mxCell>
        <mxCell id="J8dEjbeaUniouszwW0W3-41" value="&lt;span style=&quot;font-size: 15px&quot;&gt;push&lt;/span&gt;" style="text;html=1;resizable=0;autosize=1;align=center;verticalAlign=middle;points=[];fillColor=none;strokeColor=none;rounded=0;" vertex="1" parent="1">
          <mxGeometry x="455" y="449" width="50" height="20" as="geometry" />
        </mxCell>
        <mxCell id="J8dEjbeaUniouszwW0W3-42" value="" style="group;" vertex="1" connectable="0" parent="1">
          <mxGeometry x="560" y="280" width="80" height="189.82999999999998" as="geometry" />
        </mxCell>
        <mxCell id="J8dEjbeaUniouszwW0W3-43" value="" style="endArrow=none;html=1;strokeWidth=3;" edge="1" parent="J8dEjbeaUniouszwW0W3-42">
          <mxGeometry width="50" height="50" relative="1" as="geometry">
            <mxPoint y="160" as="sourcePoint" />
            <mxPoint as="targetPoint" />
          </mxGeometry>
        </mxCell>
        <mxCell id="J8dEjbeaUniouszwW0W3-44" value="" style="endArrow=none;html=1;strokeWidth=3;" edge="1" parent="J8dEjbeaUniouszwW0W3-42">
          <mxGeometry width="50" height="50" relative="1" as="geometry">
            <mxPoint y="160" as="sourcePoint" />
            <mxPoint x="80" y="160" as="targetPoint" />
          </mxGeometry>
        </mxCell>
        <mxCell id="J8dEjbeaUniouszwW0W3-45" value="" style="endArrow=none;html=1;strokeWidth=3;" edge="1" parent="J8dEjbeaUniouszwW0W3-42">
          <mxGeometry width="50" height="50" relative="1" as="geometry">
            <mxPoint x="80" y="160" as="sourcePoint" />
            <mxPoint x="80" as="targetPoint" />
          </mxGeometry>
        </mxCell>
        <mxCell id="J8dEjbeaUniouszwW0W3-60" value="" style="endArrow=none;html=1;strokeWidth=3;" edge="1" parent="J8dEjbeaUniouszwW0W3-42">
          <mxGeometry width="50" height="50" relative="1" as="geometry">
            <mxPoint y="160.82999999999998" as="sourcePoint" />
            <mxPoint x="80" y="160.82999999999998" as="targetPoint" />
          </mxGeometry>
        </mxCell>
        <mxCell id="J8dEjbeaUniouszwW0W3-61" value="1" style="rounded=1;whiteSpace=wrap;html=1;strokeColor=#000000;strokeWidth=3;fillColor=#D4E1F5;fontSize=20;" vertex="1" parent="J8dEjbeaUniouszwW0W3-42">
          <mxGeometry y="120.82999999999998" width="80" height="40" as="geometry" />
        </mxCell>
        <mxCell id="J8dEjbeaUniouszwW0W3-62" value="" style="endArrow=none;html=1;strokeWidth=3;" edge="1" parent="J8dEjbeaUniouszwW0W3-42">
          <mxGeometry width="50" height="50" relative="1" as="geometry">
            <mxPoint y="120.00000000000006" as="sourcePoint" />
            <mxPoint x="80" y="120.00000000000006" as="targetPoint" />
          </mxGeometry>
        </mxCell>
        <mxCell id="J8dEjbeaUniouszwW0W3-63" value="2" style="rounded=1;whiteSpace=wrap;html=1;strokeColor=#000000;strokeWidth=3;fillColor=#D4E1F5;fontSize=20;" vertex="1" parent="J8dEjbeaUniouszwW0W3-42">
          <mxGeometry y="80" width="80" height="40" as="geometry" />
        </mxCell>
        <mxCell id="J8dEjbeaUniouszwW0W3-64" value="&lt;span style=&quot;font-size: 15px&quot;&gt;pop&lt;/span&gt;" style="text;html=1;resizable=0;autosize=1;align=center;verticalAlign=middle;points=[];fillColor=none;strokeColor=none;rounded=0;" vertex="1" parent="J8dEjbeaUniouszwW0W3-42">
          <mxGeometry x="20" y="169.82999999999998" width="40" height="20" as="geometry" />
        </mxCell>
        <mxCell id="J8dEjbeaUniouszwW0W3-74" value="" style="curved=1;endArrow=classic;html=1;fontSize=20;strokeWidth=3;" edge="1" parent="1">
          <mxGeometry width="50" height="50" relative="1" as="geometry">
            <mxPoint x="200" y="240" as="sourcePoint" />
            <mxPoint x="240" y="280" as="targetPoint" />
            <Array as="points">
              <mxPoint x="240" y="240" />
            </Array>
          </mxGeometry>
        </mxCell>
        <mxCell id="J8dEjbeaUniouszwW0W3-75" value="" style="curved=1;endArrow=classic;html=1;fontSize=20;strokeWidth=3;" edge="1" parent="1">
          <mxGeometry width="50" height="50" relative="1" as="geometry">
            <mxPoint x="320" y="240.0000000000001" as="sourcePoint" />
            <mxPoint x="360" y="280.0000000000001" as="targetPoint" />
            <Array as="points">
              <mxPoint x="360" y="240" />
            </Array>
          </mxGeometry>
        </mxCell>
        <mxCell id="J8dEjbeaUniouszwW0W3-76" value="" style="curved=1;endArrow=classic;html=1;fontSize=20;strokeWidth=3;" edge="1" parent="1">
          <mxGeometry width="50" height="50" relative="1" as="geometry">
            <mxPoint x="440" y="240.0000000000001" as="sourcePoint" />
            <mxPoint x="480" y="280.0000000000001" as="targetPoint" />
            <Array as="points">
              <mxPoint x="480" y="240" />
            </Array>
          </mxGeometry>
        </mxCell>
        <mxCell id="J8dEjbeaUniouszwW0W3-78" value="" style="curved=1;endArrow=classic;html=1;fontSize=20;strokeWidth=3;" edge="1" parent="1">
          <mxGeometry width="50" height="50" relative="1" as="geometry">
            <mxPoint x="600" y="240.0000000000001" as="sourcePoint" />
            <mxPoint x="640" y="280.0000000000001" as="targetPoint" />
            <Array as="points">
              <mxPoint x="640" y="240" />
            </Array>
          </mxGeometry>
        </mxCell>
      </root>
    </mxGraphModel>
  </diagram>
</mxfile>
